<?xml version="1.0" encoding="UTF-8" standalone="no"?><svg xmlns="http://www.w3.org/2000/svg" xmlns:xlink="http://www.w3.org/1999/xlink" contentScriptType="application/ecmascript" contentStyleType="text/css" height="324px" preserveAspectRatio="none" style="width:562px;height:324px;background:#FFFFFF;" version="1.1" viewBox="0 0 562 324" width="562px" zoomAndPan="magnify"><defs><filter height="300%" id="f10x3x9736muth" width="300%" x="-1" y="-1"><feGaussianBlur result="blurOut" stdDeviation="2.0"/><feColorMatrix in="blurOut" result="blurOut2" type="matrix" values="0 0 0 0 0 0 0 0 0 0 0 0 0 0 0 0 0 0 .4 0"/><feOffset dx="4.0" dy="4.0" in="blurOut2" result="blurOut3"/><feBlend in="SourceGraphic" in2="blurOut3" mode="normal"/></filter></defs><g><!--MD5=[6e34f49a25d2bdb511529387ce65cfef]
class PSEC--><rect codeLine="10" fill="#FEFECE" filter="url(#f10x3x9736muth)" height="53.9375" id="PSEC" style="stroke:#A80036;stroke-width:1.5;" width="141" x="222.2626" y="124"/><ellipse cx="237.2626" cy="142.9688" fill="#ADD1B2" rx="11" ry="11" style="stroke:#A80036;stroke-width:1.0;"/><path d="M239.6063,138.6406 C238.6688,138.2031 238.0751,138.0625 237.2001,138.0625 C234.5751,138.0625 232.5751,140.1406 232.5751,142.8594 L232.5751,143.9844 C232.5751,146.5625 234.6845,148.4531 237.5751,148.4531 C238.7938,148.4531 239.9501,148.1563 240.7001,147.6094 C241.2782,147.2031 241.6063,146.75 241.6063,146.3594 C241.6063,145.9063 241.2157,145.5156 240.747,145.5156 C240.5282,145.5156 240.3251,145.5938 240.1376,145.7813 C239.6845,146.2656 239.6845,146.2656 239.497,146.3594 C239.0751,146.625 238.3876,146.75 237.622,146.75 C235.5751,146.75 234.2782,145.6563 234.2782,143.9531 L234.2782,142.8594 C234.2782,141.0781 235.5282,139.7656 237.2626,139.7656 C237.8407,139.7656 238.4501,139.9219 238.9188,140.1719 C239.4032,140.4531 239.5751,140.6719 239.6688,141.0781 C239.7313,141.4844 239.7626,141.6094 239.9032,141.7344 C240.0438,141.875 240.2782,141.9844 240.497,141.9844 C240.7626,141.9844 241.0282,141.8438 241.2001,141.625 C241.3095,141.4688 241.3407,141.2813 241.3407,140.8594 L241.3407,139.4375 C241.3407,139 241.3251,138.875 241.2313,138.7188 C241.0751,138.4531 240.7938,138.3125 240.497,138.3125 C240.2001,138.3125 239.997,138.4063 239.7782,138.7188 L239.6063,138.6406 Z " fill="#000000"/><text fill="#000000" font-family="sans-serif" font-size="12" lengthAdjust="spacing" textLength="109" x="251.2626" y="140.1387">PASSENGER SPACE</text><text fill="#000000" font-family="sans-serif" font-size="12" lengthAdjust="spacing" textLength="106" x="252.7626" y="154.1074">ENTRANCE COUNT</text><line style="stroke:#A80036;stroke-width:1.5;" x1="223.2626" x2="362.2626" y1="161.9375" y2="161.9375"/><line style="stroke:#A80036;stroke-width:1.5;" x1="223.2626" x2="362.2626" y1="169.9375" y2="169.9375"/><!--MD5=[fbf62a5f1623ad3a2bb3f884d9232a36]
class PSOC--><rect codeLine="11" fill="#FEFECE" filter="url(#f10x3x9736muth)" height="53.9375" id="PSOC" style="stroke:#A80036;stroke-width:1.5;" width="150" x="398.7626" y="124"/><ellipse cx="413.7626" cy="142.9688" fill="#ADD1B2" rx="11" ry="11" style="stroke:#A80036;stroke-width:1.0;"/><path d="M416.1063,138.6406 C415.1688,138.2031 414.5751,138.0625 413.7001,138.0625 C411.0751,138.0625 409.0751,140.1406 409.0751,142.8594 L409.0751,143.9844 C409.0751,146.5625 411.1845,148.4531 414.0751,148.4531 C415.2938,148.4531 416.4501,148.1563 417.2001,147.6094 C417.7782,147.2031 418.1063,146.75 418.1063,146.3594 C418.1063,145.9063 417.7157,145.5156 417.247,145.5156 C417.0282,145.5156 416.8251,145.5938 416.6376,145.7813 C416.1845,146.2656 416.1845,146.2656 415.997,146.3594 C415.5751,146.625 414.8876,146.75 414.122,146.75 C412.0751,146.75 410.7782,145.6563 410.7782,143.9531 L410.7782,142.8594 C410.7782,141.0781 412.0282,139.7656 413.7626,139.7656 C414.3407,139.7656 414.9501,139.9219 415.4188,140.1719 C415.9032,140.4531 416.0751,140.6719 416.1688,141.0781 C416.2313,141.4844 416.2626,141.6094 416.4032,141.7344 C416.5438,141.875 416.7782,141.9844 416.997,141.9844 C417.2626,141.9844 417.5282,141.8438 417.7001,141.625 C417.8095,141.4688 417.8407,141.2813 417.8407,140.8594 L417.8407,139.4375 C417.8407,139 417.8251,138.875 417.7313,138.7188 C417.5751,138.4531 417.2938,138.3125 416.997,138.3125 C416.7001,138.3125 416.497,138.4063 416.2782,138.7188 L416.1063,138.6406 Z " fill="#000000"/><text fill="#000000" font-family="sans-serif" font-size="12" lengthAdjust="spacing" textLength="109" x="432.2626" y="140.1387">PASSENGER SPACE</text><text fill="#000000" font-family="sans-serif" font-size="12" lengthAdjust="spacing" textLength="118" x="427.7626" y="154.1074">OCCUPANCY COUNT</text><line style="stroke:#A80036;stroke-width:1.5;" x1="399.7626" x2="547.7626" y1="161.9375" y2="161.9375"/><line style="stroke:#A80036;stroke-width:1.5;" x1="399.7626" x2="547.7626" y1="169.9375" y2="169.9375"/><!--MD5=[7372bbf51d55cfb0901280a97d9d0909]
class PS--><rect codeLine="3" fill="#FFF176" filter="url(#f10x3x9736muth)" height="53.9375" id="PS" style="stroke:#A80036;stroke-width:2.0;" width="100" x="86.7626" y="124"/><ellipse cx="101.7626" cy="142.9688" fill="#ADD1B2" rx="11" ry="11" style="stroke:#A80036;stroke-width:1.0;"/><path d="M104.1063,138.6406 C103.1688,138.2031 102.5751,138.0625 101.7001,138.0625 C99.0751,138.0625 97.0751,140.1406 97.0751,142.8594 L97.0751,143.9844 C97.0751,146.5625 99.1845,148.4531 102.0751,148.4531 C103.2938,148.4531 104.4501,148.1563 105.2001,147.6094 C105.7782,147.2031 106.1063,146.75 106.1063,146.3594 C106.1063,145.9063 105.7157,145.5156 105.247,145.5156 C105.0282,145.5156 104.8251,145.5938 104.6376,145.7813 C104.1845,146.2656 104.1845,146.2656 103.997,146.3594 C103.5751,146.625 102.8876,146.75 102.122,146.75 C100.0751,146.75 98.7782,145.6563 98.7782,143.9531 L98.7782,142.8594 C98.7782,141.0781 100.0282,139.7656 101.7626,139.7656 C102.3407,139.7656 102.9501,139.9219 103.4188,140.1719 C103.9032,140.4531 104.0751,140.6719 104.1688,141.0781 C104.2313,141.4844 104.2626,141.6094 104.4032,141.7344 C104.5438,141.875 104.7782,141.9844 104.997,141.9844 C105.2626,141.9844 105.5282,141.8438 105.7001,141.625 C105.8095,141.4688 105.8407,141.2813 105.8407,140.8594 L105.8407,139.4375 C105.8407,139 105.8251,138.875 105.7313,138.7188 C105.5751,138.4531 105.2938,138.3125 104.997,138.3125 C104.7001,138.3125 104.497,138.4063 104.2782,138.7188 L104.1063,138.6406 Z " fill="#000000"/><text fill="#000000" font-family="sans-serif" font-size="12" lengthAdjust="spacing" textLength="68" x="115.7626" y="140.1387">PASSENGER</text><text fill="#000000" font-family="sans-serif" font-size="12" lengthAdjust="spacing" textLength="37" x="131.2626" y="154.1074">SPACE</text><line style="stroke:#A80036;stroke-width:2.0;" x1="87.7626" x2="185.7626" y1="161.9375" y2="161.9375"/><line style="stroke:#A80036;stroke-width:2.0;" x1="87.7626" x2="185.7626" y1="169.9375" y2="169.9375"/><!--MD5=[f97bf103d261eefa569def69f3ce8e4d]
class PE--><rect codeLine="4" fill="#FFF176" filter="url(#f10x3x9736muth)" height="53.9375" id="PE" style="stroke:#A80036;stroke-width:2.0;" width="100" x="86.7626" y="257"/><ellipse cx="101.7626" cy="275.9688" fill="#ADD1B2" rx="11" ry="11" style="stroke:#A80036;stroke-width:1.0;"/><path d="M104.1063,271.6406 C103.1688,271.2031 102.5751,271.0625 101.7001,271.0625 C99.0751,271.0625 97.0751,273.1406 97.0751,275.8594 L97.0751,276.9844 C97.0751,279.5625 99.1845,281.4531 102.0751,281.4531 C103.2938,281.4531 104.4501,281.1563 105.2001,280.6094 C105.7782,280.2031 106.1063,279.75 106.1063,279.3594 C106.1063,278.9063 105.7157,278.5156 105.247,278.5156 C105.0282,278.5156 104.8251,278.5938 104.6376,278.7813 C104.1845,279.2656 104.1845,279.2656 103.997,279.3594 C103.5751,279.625 102.8876,279.75 102.122,279.75 C100.0751,279.75 98.7782,278.6563 98.7782,276.9531 L98.7782,275.8594 C98.7782,274.0781 100.0282,272.7656 101.7626,272.7656 C102.3407,272.7656 102.9501,272.9219 103.4188,273.1719 C103.9032,273.4531 104.0751,273.6719 104.1688,274.0781 C104.2313,274.4844 104.2626,274.6094 104.4032,274.7344 C104.5438,274.875 104.7782,274.9844 104.997,274.9844 C105.2626,274.9844 105.5282,274.8438 105.7001,274.625 C105.8095,274.4688 105.8407,274.2813 105.8407,273.8594 L105.8407,272.4375 C105.8407,272 105.8251,271.875 105.7313,271.7188 C105.5751,271.4531 105.2938,271.3125 104.997,271.3125 C104.7001,271.3125 104.497,271.4063 104.2782,271.7188 L104.1063,271.6406 Z " fill="#000000"/><text fill="#000000" font-family="sans-serif" font-size="12" lengthAdjust="spacing" textLength="68" x="115.7626" y="273.1387">PASSENGER</text><text fill="#000000" font-family="sans-serif" font-size="12" lengthAdjust="spacing" textLength="60" x="119.7626" y="287.1074">ENTRANCE</text><line style="stroke:#A80036;stroke-width:2.0;" x1="87.7626" x2="185.7626" y1="294.9375" y2="294.9375"/><line style="stroke:#A80036;stroke-width:2.0;" x1="87.7626" x2="185.7626" y1="302.9375" y2="302.9375"/><!--MD5=[2f2b25f097c88caae59e225cb81e856c]
class PSC--><rect codeLine="5" fill="#FFF176" filter="url(#f10x3x9736muth)" height="53.9375" id="PSC" style="stroke:#A80036;stroke-width:2.0;" width="128" x="72.7626" y="7"/><ellipse cx="87.7626" cy="25.9688" fill="#ADD1B2" rx="11" ry="11" style="stroke:#A80036;stroke-width:1.0;"/><path d="M90.1063,21.6406 C89.1688,21.2031 88.5751,21.0625 87.7001,21.0625 C85.0751,21.0625 83.0751,23.1406 83.0751,25.8594 L83.0751,26.9844 C83.0751,29.5625 85.1845,31.4531 88.0751,31.4531 C89.2938,31.4531 90.4501,31.1563 91.2001,30.6094 C91.7782,30.2031 92.1063,29.75 92.1063,29.3594 C92.1063,28.9063 91.7157,28.5156 91.247,28.5156 C91.0282,28.5156 90.8251,28.5938 90.6376,28.7813 C90.1845,29.2656 90.1845,29.2656 89.997,29.3594 C89.5751,29.625 88.8876,29.75 88.122,29.75 C86.0751,29.75 84.7782,28.6563 84.7782,26.9531 L84.7782,25.8594 C84.7782,24.0781 86.0282,22.7656 87.7626,22.7656 C88.3407,22.7656 88.9501,22.9219 89.4188,23.1719 C89.9032,23.4531 90.0751,23.6719 90.1688,24.0781 C90.2313,24.4844 90.2626,24.6094 90.4032,24.7344 C90.5438,24.875 90.7782,24.9844 90.997,24.9844 C91.2626,24.9844 91.5282,24.8438 91.7001,24.625 C91.8095,24.4688 91.8407,24.2813 91.8407,23.8594 L91.8407,22.4375 C91.8407,22 91.8251,21.875 91.7313,21.7188 C91.5751,21.4531 91.2938,21.3125 90.997,21.3125 C90.7001,21.3125 90.497,21.4063 90.2782,21.7188 L90.1063,21.6406 Z " fill="#000000"/><text fill="#000000" font-family="sans-serif" font-size="12" lengthAdjust="spacing" textLength="68" x="115.7626" y="23.1387">PASSENGER</text><text fill="#000000" font-family="sans-serif" font-size="12" lengthAdjust="spacing" textLength="96" x="101.7626" y="37.1074">SPACE CAPACITY</text><line style="stroke:#A80036;stroke-width:2.0;" x1="73.7626" x2="199.7626" y1="44.9375" y2="44.9375"/><line style="stroke:#A80036;stroke-width:2.0;" x1="73.7626" x2="199.7626" y1="52.9375" y2="52.9375"/><!--MD5=[59daf2a024992080af64fd9b6727a752]
class PEC--><rect codeLine="7" fill="#FEFECE" filter="url(#f10x3x9736muth)" height="53.9375" id="PEC" style="stroke:#A80036;stroke-width:1.5;" width="138" x="221.7626" y="257"/><ellipse cx="236.7626" cy="275.9688" fill="#ADD1B2" rx="11" ry="11" style="stroke:#A80036;stroke-width:1.0;"/><path d="M239.1063,271.6406 C238.1688,271.2031 237.5751,271.0625 236.7001,271.0625 C234.0751,271.0625 232.0751,273.1406 232.0751,275.8594 L232.0751,276.9844 C232.0751,279.5625 234.1845,281.4531 237.0751,281.4531 C238.2938,281.4531 239.4501,281.1563 240.2001,280.6094 C240.7782,280.2031 241.1063,279.75 241.1063,279.3594 C241.1063,278.9063 240.7157,278.5156 240.247,278.5156 C240.0282,278.5156 239.8251,278.5938 239.6376,278.7813 C239.1845,279.2656 239.1845,279.2656 238.997,279.3594 C238.5751,279.625 237.8876,279.75 237.122,279.75 C235.0751,279.75 233.7782,278.6563 233.7782,276.9531 L233.7782,275.8594 C233.7782,274.0781 235.0282,272.7656 236.7626,272.7656 C237.3407,272.7656 237.9501,272.9219 238.4188,273.1719 C238.9032,273.4531 239.0751,273.6719 239.1688,274.0781 C239.2313,274.4844 239.2626,274.6094 239.4032,274.7344 C239.5438,274.875 239.7782,274.9844 239.997,274.9844 C240.2626,274.9844 240.5282,274.8438 240.7001,274.625 C240.8095,274.4688 240.8407,274.2813 240.8407,273.8594 L240.8407,272.4375 C240.8407,272 240.8251,271.875 240.7313,271.7188 C240.5751,271.4531 240.2938,271.3125 239.997,271.3125 C239.7001,271.3125 239.497,271.4063 239.2782,271.7188 L239.1063,271.6406 Z " fill="#000000"/><text fill="#000000" font-family="sans-serif" font-size="12" lengthAdjust="spacing" textLength="68" x="269.7626" y="273.1387">PASSENGER</text><text fill="#000000" font-family="sans-serif" font-size="12" lengthAdjust="spacing" textLength="106" x="250.7626" y="287.1074">ENTRANCE COUNT</text><line style="stroke:#A80036;stroke-width:1.5;" x1="222.7626" x2="358.7626" y1="294.9375" y2="294.9375"/><line style="stroke:#A80036;stroke-width:1.5;" x1="222.7626" x2="358.7626" y1="302.9375" y2="302.9375"/><polygon fill="#FEFECE" filter="url(#f10x3x9736muth)" points="39.7626,139,51.7626,151,39.7626,163,27.7626,151,39.7626,139" style="stroke:#A80036;stroke-width:1.5;"/><!--MD5=[05fdc427522a4e2529059ea49e044277]
link diamond to PS--><path codeLine="14" d="M48.8564,154.059 C57.1191,156.55 65.3817,158.258 73.6444,159.182 " fill="none" id="diamond-to-PS" style="stroke:#A80036;stroke-width:1.0;"/><polygon fill="#FFFFFF" points="86.6286,159.99,80.8885,155.6252,74.6517,159.245,80.3918,163.6098,86.6286,159.99" style="stroke:#A80036;stroke-width:1.0;"/><text fill="#000000" font-family="sans-serif" font-size="13" lengthAdjust="spacing" textLength="71" x="9.5134" y="182.8549">part-of 0..*</text><!--MD5=[05fdc427522a4e2529059ea49e044277]
link diamond to PS--><path codeLine="15" d="M48.8564,147.941 C57.1191,145.45 65.3817,143.742 73.6444,142.818 " fill="none" id="diamond-to-PS-1" style="stroke:#A80036;stroke-width:1.0;"/><polygon fill="#FFFFFF" points="86.6286,142.01,80.3918,138.3902,74.6517,142.755,80.8885,146.3748,86.6286,142.01" style="stroke:#A80036;stroke-width:1.0;"/><text fill="#000000" font-family="sans-serif" font-size="13" lengthAdjust="spacing" textLength="74" x="6" y="128.0046">contain 0..*</text><!--MD5=[38625fcb991ddb2c5525c93732f1db23]
link PS to PE--><path codeLine="16" d="M136.7626,178.195 C136.7626,196.937 136.7626,222.4932 136.7626,243.6767 " fill="none" id="PS-to-PE" style="stroke:#A80036;stroke-width:1.0;"/><polygon fill="#FFFFFF" points="136.7626,256.8504,140.7626,250.8504,136.7626,244.8504,132.7626,250.8504,136.7626,256.8504" style="stroke:#A80036;stroke-width:1.0;"/><text fill="#000000" font-family="sans-serif" font-size="13" lengthAdjust="spacing" textLength="48" x="137.7626" y="223.0669">to/from</text><text fill="#000000" font-family="sans-serif" font-size="13" lengthAdjust="spacing" textLength="23" x="111.1032" y="245.9272">1..*</text><!--MD5=[0f818d4af2273e620bb21659ed0f0b6a]
link PSC to PS--><path codeLine="17" d="M136.7626,61.095 C136.7626,79.783 136.7626,104.855 136.7626,123.61 " fill="none" id="PSC-PS" style="stroke:#A80036;stroke-width:1.0;"/><text fill="#000000" font-family="sans-serif" font-size="13" lengthAdjust="spacing" textLength="8" x="127.8376" y="81.1846">1</text><!--MD5=[75c5c3b9c9c29b8297c148d96ebfad50]
link PS to PSOC--><path codeLine="19" d="M160.6676,123.798 C176.5886,107.831 198.9876,89.139 223.2626,80.5 C281.8826,59.637 303.5316,63.068 363.2626,80.5 C387.6626,87.621 411.8076,101.95 431.2736,115.84 " fill="none" id="PS-to-PSOC" style="stroke:#A80036;stroke-width:1.0;"/><polygon fill="#A80036" points="441.8696,123.686,439.4275,116.901,432.2252,116.5456,434.6673,123.3306,441.8696,123.686" style="stroke:#A80036;stroke-width:1.0;"/><text fill="#000000" font-family="sans-serif" font-size="13" lengthAdjust="spacing" textLength="8" x="425.5693" y="112.7247">1</text><!--MD5=[91ef4b104412f92b1bb0e964c7534855]
link PS to PSEC--><path codeLine="20" d="M187.0356,151 C194.3496,151 201.6626,151 208.9766,151 " fill="none" id="PS-to-PSEC" style="stroke:#A80036;stroke-width:1.0;"/><polygon fill="#A80036" points="222.1406,151,216.1406,147,210.1406,151,216.1406,155,222.1406,151" style="stroke:#A80036;stroke-width:1.0;"/><text fill="#000000" font-family="sans-serif" font-size="13" lengthAdjust="spacing" textLength="8" x="206.4452" y="147.3035">1</text><!--MD5=[f8da9196eed85c19d2603aee9245f0fc]
link PE to PEC--><path codeLine="23" d="M186.9936,284 C194.0816,284 201.1696,284 208.2586,284 " fill="none" id="PE-to-PEC" style="stroke:#A80036;stroke-width:1.0;"/><polygon fill="#A80036" points="221.4476,284,215.4476,280,209.4476,284,215.4476,288,221.4476,284" style="stroke:#A80036;stroke-width:1.0;"/><text fill="#000000" font-family="sans-serif" font-size="13" lengthAdjust="spacing" textLength="8" x="205.887" y="280.3035">1</text><!--MD5=[6f72de309317b09d92edcfe788b7d825]
@startuml
skinparam backgroundColor white

class "PASSENGER\nSPACE" as PS #line.bold;back:FFF176 
class "PASSENGER\nENTRANCE" as PE #line.bold;back:FFF176
class "PASSENGER\nSPACE CAPACITY" as PSC #line.bold;back:FFF176

class "PASSENGER\nENTRANCE COUNT" as PEC
together {

class "PASSENGER SPACE\nENTRANCE COUNT" as PSEC
class "PASSENGER SPACE\nOCCUPANCY COUNT" as PSOC
}
<> diamond
PS "part-of 0..*" o-left- diamond
PS "contain 0..*" o-left- diamond
PS  -down-o "1..*" PE : to/from
PS -up- "1" PSC

PS -right-* "1" PSOC
PS -right-* "1" PSEC


PE -right-* "1" PEC
@enduml

PlantUML version 1.2021.7(Sun May 23 12:40:07 UTC 2021)
(GPL source distribution)
Java Runtime: Java(TM) SE Runtime Environment
JVM: Java HotSpot(TM) 64-Bit Server VM
Default Encoding: UTF-8
Language: en
Country: US
--></g></svg>