<?xml version="1.0" encoding="UTF-8" standalone="no"?><svg xmlns="http://www.w3.org/2000/svg" xmlns:xlink="http://www.w3.org/1999/xlink" contentScriptType="application/ecmascript" contentStyleType="text/css" height="818px" preserveAspectRatio="none" style="width:683px;height:818px;background:#FFFFFF;" version="1.1" viewBox="0 0 683 818" width="683px" zoomAndPan="magnify"><defs><filter height="300%" id="f141yx31vn0u67" width="300%" x="-1" y="-1"><feGaussianBlur result="blurOut" stdDeviation="2.0"/><feColorMatrix in="blurOut" result="blurOut2" type="matrix" values="0 0 0 0 0 0 0 0 0 0 0 0 0 0 0 0 0 0 .4 0"/><feOffset dx="4.0" dy="4.0" in="blurOut2" result="blurOut3"/><feBlend in="SourceGraphic" in2="blurOut3" mode="normal"/></filter></defs><g><!--MD5=[7372bbf51d55cfb0901280a97d9d0909]
class PS--><rect codeLine="3" fill="#FFF176" filter="url(#f141yx31vn0u67)" height="117.9609" id="PS" style="stroke:#A80036;stroke-width:2.0;" width="170" x="213" y="202"/><ellipse cx="259.75" cy="220.9688" fill="#ADD1B2" rx="11" ry="11" style="stroke:#A80036;stroke-width:1.0;"/><path d="M262.0938,216.6406 C261.1563,216.2031 260.5625,216.0625 259.6875,216.0625 C257.0625,216.0625 255.0625,218.1406 255.0625,220.8594 L255.0625,221.9844 C255.0625,224.5625 257.1719,226.4531 260.0625,226.4531 C261.2813,226.4531 262.4375,226.1563 263.1875,225.6094 C263.7656,225.2031 264.0938,224.75 264.0938,224.3594 C264.0938,223.9063 263.7031,223.5156 263.2344,223.5156 C263.0156,223.5156 262.8125,223.5938 262.625,223.7813 C262.1719,224.2656 262.1719,224.2656 261.9844,224.3594 C261.5625,224.625 260.875,224.75 260.1094,224.75 C258.0625,224.75 256.7656,223.6563 256.7656,221.9531 L256.7656,220.8594 C256.7656,219.0781 258.0156,217.7656 259.75,217.7656 C260.3281,217.7656 260.9375,217.9219 261.4063,218.1719 C261.8906,218.4531 262.0625,218.6719 262.1563,219.0781 C262.2188,219.4844 262.25,219.6094 262.3906,219.7344 C262.5313,219.875 262.7656,219.9844 262.9844,219.9844 C263.25,219.9844 263.5156,219.8438 263.6875,219.625 C263.7969,219.4688 263.8281,219.2813 263.8281,218.8594 L263.8281,217.4375 C263.8281,217 263.8125,216.875 263.7188,216.7188 C263.5625,216.4531 263.2813,216.3125 262.9844,216.3125 C262.6875,216.3125 262.4844,216.4063 262.2656,216.7188 L262.0938,216.6406 Z " fill="#000000"/><text fill="#000000" font-family="sans-serif" font-size="12" lengthAdjust="spacing" textLength="68" x="280.25" y="218.1387">PASSENGER</text><text fill="#000000" font-family="sans-serif" font-size="12" lengthAdjust="spacing" textLength="37" x="295.75" y="232.1074">SPACE</text><line style="stroke:#A80036;stroke-width:2.0;" x1="214" x2="382" y1="239.9375" y2="239.9375"/><text fill="#000000" font-family="sans-serif" font-size="11" lengthAdjust="spacing" textLength="67" x="219" y="254.1479">SpaceId : id</text><text fill="#000000" font-family="sans-serif" font-size="11" lengthAdjust="spacing" textLength="101" x="219" y="266.9526">Enum SpaceType</text><text fill="#000000" font-family="sans-serif" font-size="11" lengthAdjust="spacing" textLength="154" x="219" y="279.7573">SpaceId [] : isPartOfSpaces</text><text fill="#000000" font-family="sans-serif" font-size="11" lengthAdjust="spacing" textLength="158" x="219" y="292.562">SpaceId [] : containsSpaces</text><text fill="#000000" font-family="sans-serif" font-size="11" lengthAdjust="spacing" textLength="149" x="219" y="305.3667">EntranceRef [] : entrances</text><line style="stroke:#A80036;stroke-width:2.0;" x1="214" x2="382" y1="311.9609" y2="311.9609"/><!--MD5=[2f2b25f097c88caae59e225cb81e856c]
class PSC--><rect codeLine="11" fill="#FFF176" filter="url(#f141yx31vn0u67)" height="79.5469" id="PSC" style="stroke:#A80036;stroke-width:2.0;" width="185" x="205.5" y="32.5"/><ellipse cx="246.15" cy="51.4688" fill="#ADD1B2" rx="11" ry="11" style="stroke:#A80036;stroke-width:1.0;"/><path d="M248.4938,47.1406 C247.5563,46.7031 246.9625,46.5625 246.0875,46.5625 C243.4625,46.5625 241.4625,48.6406 241.4625,51.3594 L241.4625,52.4844 C241.4625,55.0625 243.5719,56.9531 246.4625,56.9531 C247.6813,56.9531 248.8375,56.6563 249.5875,56.1094 C250.1656,55.7031 250.4938,55.25 250.4938,54.8594 C250.4938,54.4063 250.1031,54.0156 249.6344,54.0156 C249.4156,54.0156 249.2125,54.0938 249.025,54.2813 C248.5719,54.7656 248.5719,54.7656 248.3844,54.8594 C247.9625,55.125 247.275,55.25 246.5094,55.25 C244.4625,55.25 243.1656,54.1563 243.1656,52.4531 L243.1656,51.3594 C243.1656,49.5781 244.4156,48.2656 246.15,48.2656 C246.7281,48.2656 247.3375,48.4219 247.8063,48.6719 C248.2906,48.9531 248.4625,49.1719 248.5563,49.5781 C248.6188,49.9844 248.65,50.1094 248.7906,50.2344 C248.9313,50.375 249.1656,50.4844 249.3844,50.4844 C249.65,50.4844 249.9156,50.3438 250.0875,50.125 C250.1969,49.9688 250.2281,49.7813 250.2281,49.3594 L250.2281,47.9375 C250.2281,47.5 250.2125,47.375 250.1188,47.2188 C249.9625,46.9531 249.6813,46.8125 249.3844,46.8125 C249.0875,46.8125 248.8844,46.9063 248.6656,47.2188 L248.4938,47.1406 Z " fill="#000000"/><text fill="#000000" font-family="sans-serif" font-size="12" lengthAdjust="spacing" textLength="68" x="279.85" y="48.6387">PASSENGER</text><text fill="#000000" font-family="sans-serif" font-size="12" lengthAdjust="spacing" textLength="96" x="265.85" y="62.6074">SPACE CAPACITY</text><line style="stroke:#A80036;stroke-width:2.0;" x1="206.5" x2="389.5" y1="70.4375" y2="70.4375"/><text fill="#000000" font-family="sans-serif" font-size="11" lengthAdjust="spacing" textLength="101" x="211.5" y="84.6479">SpaceId : spaceId</text><text fill="#000000" font-family="sans-serif" font-size="11" lengthAdjust="spacing" textLength="173" x="211.5" y="97.4526">ObjectCount : countAtCapacity</text><line style="stroke:#A80036;stroke-width:2.0;" x1="206.5" x2="389.5" y1="104.0469" y2="104.0469"/><!--MD5=[fbf62a5f1623ad3a2bb3f884d9232a36]
class PSOC--><rect codeLine="16" fill="#FEFECE" filter="url(#f141yx31vn0u67)" height="105.1563" id="PSOC" style="stroke:#A80036;stroke-width:1.5;" width="153" x="16.5" y="208"/><ellipse cx="32.85" cy="226.9688" fill="#ADD1B2" rx="11" ry="11" style="stroke:#A80036;stroke-width:1.0;"/><path d="M35.1938,222.6406 C34.2563,222.2031 33.6625,222.0625 32.7875,222.0625 C30.1625,222.0625 28.1625,224.1406 28.1625,226.8594 L28.1625,227.9844 C28.1625,230.5625 30.2719,232.4531 33.1625,232.4531 C34.3813,232.4531 35.5375,232.1563 36.2875,231.6094 C36.8656,231.2031 37.1938,230.75 37.1938,230.3594 C37.1938,229.9063 36.8031,229.5156 36.3344,229.5156 C36.1156,229.5156 35.9125,229.5938 35.725,229.7813 C35.2719,230.2656 35.2719,230.2656 35.0844,230.3594 C34.6625,230.625 33.975,230.75 33.2094,230.75 C31.1625,230.75 29.8656,229.6563 29.8656,227.9531 L29.8656,226.8594 C29.8656,225.0781 31.1156,223.7656 32.85,223.7656 C33.4281,223.7656 34.0375,223.9219 34.5063,224.1719 C34.9906,224.4531 35.1625,224.6719 35.2563,225.0781 C35.3188,225.4844 35.35,225.6094 35.4906,225.7344 C35.6313,225.875 35.8656,225.9844 36.0844,225.9844 C36.35,225.9844 36.6156,225.8438 36.7875,225.625 C36.8969,225.4688 36.9281,225.2813 36.9281,224.8594 L36.9281,223.4375 C36.9281,223 36.9125,222.875 36.8188,222.7188 C36.6625,222.4531 36.3813,222.3125 36.0844,222.3125 C35.7875,222.3125 35.5844,222.4063 35.3656,222.7188 L35.1938,222.6406 Z " fill="#000000"/><text fill="#000000" font-family="sans-serif" font-size="12" lengthAdjust="spacing" textLength="109" x="51.65" y="224.1387">PASSENGER SPACE</text><text fill="#000000" font-family="sans-serif" font-size="12" lengthAdjust="spacing" textLength="118" x="47.15" y="238.1074">OCCUPANCY COUNT</text><line style="stroke:#A80036;stroke-width:1.5;" x1="17.5" x2="168.5" y1="245.9375" y2="245.9375"/><text fill="#000000" font-family="sans-serif" font-size="11" lengthAdjust="spacing" textLength="101" x="22.5" y="260.1479">SpaceId : spaceId</text><text fill="#000000" font-family="sans-serif" font-size="11" lengthAdjust="spacing" textLength="141" x="22.5" y="272.9526">ObjectCount : occupancy</text><text fill="#000000" font-family="sans-serif" font-size="11" lengthAdjust="spacing" textLength="121" x="22.5" y="285.7573">CountTrigger : trigger</text><text fill="#000000" font-family="sans-serif" font-size="11" lengthAdjust="spacing" textLength="95" x="22.5" y="298.562">timestamp : now</text><line style="stroke:#A80036;stroke-width:1.5;" x1="17.5" x2="168.5" y1="305.1563" y2="305.1563"/><!--MD5=[9f9de66eaaf3e2f83c3152072bf56c4b]
class EntranceRef--><rect codeLine="24" fill="#FFF176" filter="url(#f141yx31vn0u67)" height="92.3516" id="EntranceRef" style="stroke:#A80036;stroke-width:2.0;" width="253" x="165.5" y="383"/><ellipse cx="187.7" cy="401.9688" fill="#ADD1B2" rx="11" ry="11" style="stroke:#A80036;stroke-width:1.0;"/><path d="M190.0438,397.6406 C189.1063,397.2031 188.5125,397.0625 187.6375,397.0625 C185.0125,397.0625 183.0125,399.1406 183.0125,401.8594 L183.0125,402.9844 C183.0125,405.5625 185.1219,407.4531 188.0125,407.4531 C189.2313,407.4531 190.3875,407.1563 191.1375,406.6094 C191.7156,406.2031 192.0438,405.75 192.0438,405.3594 C192.0438,404.9063 191.6531,404.5156 191.1844,404.5156 C190.9656,404.5156 190.7625,404.5938 190.575,404.7813 C190.1219,405.2656 190.1219,405.2656 189.9344,405.3594 C189.5125,405.625 188.825,405.75 188.0594,405.75 C186.0125,405.75 184.7156,404.6563 184.7156,402.9531 L184.7156,401.8594 C184.7156,400.0781 185.9656,398.7656 187.7,398.7656 C188.2781,398.7656 188.8875,398.9219 189.3563,399.1719 C189.8406,399.4531 190.0125,399.6719 190.1063,400.0781 C190.1688,400.4844 190.2,400.6094 190.3406,400.7344 C190.4813,400.875 190.7156,400.9844 190.9344,400.9844 C191.2,400.9844 191.4656,400.8438 191.6375,400.625 C191.7469,400.4688 191.7781,400.2813 191.7781,399.8594 L191.7781,398.4375 C191.7781,398 191.7625,397.875 191.6688,397.7188 C191.5125,397.4531 191.2313,397.3125 190.9344,397.3125 C190.6375,397.3125 190.4344,397.4063 190.2156,397.7188 L190.0438,397.6406 Z " fill="#000000"/><text fill="#000000" font-family="sans-serif" font-size="12" lengthAdjust="spacing" textLength="71" x="268.3" y="399.1387">EntranceRef</text><text fill="#000000" font-family="sans-serif" font-size="12" lengthAdjust="spacing" textLength="201" x="203.3" y="413.1074">ENTRANCE FOR PASSENGER SPACE</text><line style="stroke:#A80036;stroke-width:2.0;" x1="166.5" x2="417.5" y1="420.9375" y2="420.9375"/><text fill="#000000" font-family="sans-serif" font-size="11" lengthAdjust="spacing" textLength="132" x="171.5" y="435.1479">EntranceId : entranceId</text><text fill="#000000" font-family="sans-serif" font-size="11" lengthAdjust="spacing" textLength="241" x="171.5" y="447.9526">Enum EntranceType : EXTERNAL|INTERNAL</text><text fill="#000000" font-family="sans-serif" font-size="11" lengthAdjust="spacing" textLength="211" x="171.5" y="460.7573">Enum Direction : ALIGNED|REVERSED</text><line style="stroke:#A80036;stroke-width:2.0;" x1="166.5" x2="417.5" y1="467.3516" y2="467.3516"/><!--MD5=[013851294179d1810843e9426ad00794]
class SensorEntranceMapping--><rect codeLine="30" fill="#FFF176" filter="url(#f141yx31vn0u67)" height="73.6094" id="SensorEntranceMapping" style="stroke:#A80036;stroke-width:2.0;" width="178" x="7" y="570"/><ellipse cx="22" cy="586" fill="#ADD1B2" rx="11" ry="11" style="stroke:#A80036;stroke-width:1.0;"/><path d="M24.3438,581.6719 C23.4063,581.2344 22.8125,581.0938 21.9375,581.0938 C19.3125,581.0938 17.3125,583.1719 17.3125,585.8906 L17.3125,587.0156 C17.3125,589.5938 19.4219,591.4844 22.3125,591.4844 C23.5313,591.4844 24.6875,591.1875 25.4375,590.6406 C26.0156,590.2344 26.3438,589.7813 26.3438,589.3906 C26.3438,588.9375 25.9531,588.5469 25.4844,588.5469 C25.2656,588.5469 25.0625,588.625 24.875,588.8125 C24.4219,589.2969 24.4219,589.2969 24.2344,589.3906 C23.8125,589.6563 23.125,589.7813 22.3594,589.7813 C20.3125,589.7813 19.0156,588.6875 19.0156,586.9844 L19.0156,585.8906 C19.0156,584.1094 20.2656,582.7969 22,582.7969 C22.5781,582.7969 23.1875,582.9531 23.6563,583.2031 C24.1406,583.4844 24.3125,583.7031 24.4063,584.1094 C24.4688,584.5156 24.5,584.6406 24.6406,584.7656 C24.7813,584.9063 25.0156,585.0156 25.2344,585.0156 C25.5,585.0156 25.7656,584.875 25.9375,584.6563 C26.0469,584.5 26.0781,584.3125 26.0781,583.8906 L26.0781,582.4688 C26.0781,582.0313 26.0625,581.9063 25.9688,581.75 C25.8125,581.4844 25.5313,581.3438 25.2344,581.3438 C24.9375,581.3438 24.7344,581.4375 24.5156,581.75 L24.3438,581.6719 Z " fill="#000000"/><text fill="#000000" font-family="sans-serif" font-size="12" lengthAdjust="spacing" textLength="146" x="36" y="590.1543">SensorEntranceMapping</text><line style="stroke:#A80036;stroke-width:2.0;" x1="8" x2="184" y1="602" y2="602"/><text fill="#000000" font-family="sans-serif" font-size="11" lengthAdjust="spacing" textLength="132" x="13" y="616.2104">EntranceId : entranceId</text><text fill="#000000" font-family="sans-serif" font-size="11" lengthAdjust="spacing" textLength="109" x="13" y="629.0151">SensorId : sensorId</text><line style="stroke:#A80036;stroke-width:2.0;" x1="8" x2="184" y1="635.6094" y2="635.6094"/><path d="M43,739 L43,809.5313 L345,809.5313 L345,749 L335,739 L43,739 " fill="#FBFB77" filter="url(#f141yx31vn0u67)" style="stroke:#A80036;stroke-width:1.0;"/><path d="M335,739 L335,749 L345,749 L335,739 " fill="#FBFB77" style="stroke:#A80036;stroke-width:1.0;"/><text fill="#000000" font-family="sans-serif" font-size="13" lengthAdjust="spacing" textLength="236" x="49" y="756.0669">PASSENGER ENTRANCE COUNT must</text><text fill="#000000" font-family="sans-serif" font-size="13" lengthAdjust="spacing" textLength="277" x="49" y="771.1997">contain _either_ a entranceId or a sensorId.</text><text fill="#000000" font-family="sans-serif" font-size="13" lengthAdjust="spacing" textLength="160" x="49" y="786.3325">If it contains a sensorId a</text><text fill="#000000" font-family="sans-serif" font-size="13" lengthAdjust="spacing" textLength="268" x="49" y="801.4653">SensorEntranceMapping must be present.</text><!--MD5=[59daf2a024992080af64fd9b6727a752]
class PEC--><rect codeLine="41" fill="#FEFECE" filter="url(#f141yx31vn0u67)" height="143.5703" id="PEC" style="stroke:#A80036;stroke-width:1.5;" width="144" x="220" y="535"/><ellipse cx="237.7" cy="553.9688" fill="#ADD1B2" rx="11" ry="11" style="stroke:#A80036;stroke-width:1.0;"/><path d="M240.0438,549.6406 C239.1063,549.2031 238.5125,549.0625 237.6375,549.0625 C235.0125,549.0625 233.0125,551.1406 233.0125,553.8594 L233.0125,554.9844 C233.0125,557.5625 235.1219,559.4531 238.0125,559.4531 C239.2313,559.4531 240.3875,559.1563 241.1375,558.6094 C241.7156,558.2031 242.0438,557.75 242.0438,557.3594 C242.0438,556.9063 241.6531,556.5156 241.1844,556.5156 C240.9656,556.5156 240.7625,556.5938 240.575,556.7813 C240.1219,557.2656 240.1219,557.2656 239.9344,557.3594 C239.5125,557.625 238.825,557.75 238.0594,557.75 C236.0125,557.75 234.7156,556.6563 234.7156,554.9531 L234.7156,553.8594 C234.7156,552.0781 235.9656,550.7656 237.7,550.7656 C238.2781,550.7656 238.8875,550.9219 239.3563,551.1719 C239.8406,551.4531 240.0125,551.6719 240.1063,552.0781 C240.1688,552.4844 240.2,552.6094 240.3406,552.7344 C240.4813,552.875 240.7156,552.9844 240.9344,552.9844 C241.2,552.9844 241.4656,552.8438 241.6375,552.625 C241.7469,552.4688 241.7781,552.2813 241.7781,551.8594 L241.7781,550.4375 C241.7781,550 241.7625,549.875 241.6688,549.7188 C241.5125,549.4531 241.2313,549.3125 240.9344,549.3125 C240.6375,549.3125 240.4344,549.4063 240.2156,549.7188 L240.0438,549.6406 Z " fill="#000000"/><text fill="#000000" font-family="sans-serif" font-size="12" lengthAdjust="spacing" textLength="68" x="271.3" y="551.1387">PASSENGER</text><text fill="#000000" font-family="sans-serif" font-size="12" lengthAdjust="spacing" textLength="106" x="252.3" y="565.1074">ENTRANCE COUNT</text><line style="stroke:#A80036;stroke-width:1.5;" x1="221" x2="363" y1="572.9375" y2="572.9375"/><text fill="#000000" font-family="sans-serif" font-size="11" lengthAdjust="spacing" textLength="132" x="226" y="587.1479">EntranceId : entranceId</text><text fill="#000000" font-family="sans-serif" font-size="11" lengthAdjust="spacing" textLength="109" x="226" y="599.9526">SensorId : sensorId</text><text fill="#000000" font-family="sans-serif" font-size="11" lengthAdjust="spacing" textLength="127" x="226" y="612.7573">ObjectCount : entered</text><text fill="#000000" font-family="sans-serif" font-size="11" lengthAdjust="spacing" textLength="118" x="226" y="625.562">ObjectCount : exited</text><text fill="#000000" font-family="sans-serif" font-size="11" lengthAdjust="spacing" textLength="121" x="226" y="638.3667">CountTrigger : trigger</text><text fill="#000000" font-family="sans-serif" font-size="11" lengthAdjust="spacing" textLength="95" x="226" y="651.1714">timestamp : now</text><text fill="#000000" font-family="sans-serif" font-size="11" lengthAdjust="spacing" textLength="130" x="226" y="663.9761">timestamp : countStart</text><line style="stroke:#A80036;stroke-width:1.5;" x1="221" x2="363" y1="670.5703" y2="670.5703"/><!--MD5=[6e34f49a25d2bdb511529387ce65cfef]
class PSEC--><rect codeLine="55" fill="#FEFECE" filter="url(#f141yx31vn0u67)" height="130.7656" id="PSEC" style="stroke:#A80036;stroke-width:1.5;" width="142" x="22" y="7"/><ellipse cx="37.45" cy="25.9688" fill="#ADD1B2" rx="11" ry="11" style="stroke:#A80036;stroke-width:1.0;"/><path d="M39.7938,21.6406 C38.8563,21.2031 38.2625,21.0625 37.3875,21.0625 C34.7625,21.0625 32.7625,23.1406 32.7625,25.8594 L32.7625,26.9844 C32.7625,29.5625 34.8719,31.4531 37.7625,31.4531 C38.9813,31.4531 40.1375,31.1563 40.8875,30.6094 C41.4656,30.2031 41.7938,29.75 41.7938,29.3594 C41.7938,28.9063 41.4031,28.5156 40.9344,28.5156 C40.7156,28.5156 40.5125,28.5938 40.325,28.7813 C39.8719,29.2656 39.8719,29.2656 39.6844,29.3594 C39.2625,29.625 38.575,29.75 37.8094,29.75 C35.7625,29.75 34.4656,28.6563 34.4656,26.9531 L34.4656,25.8594 C34.4656,24.0781 35.7156,22.7656 37.45,22.7656 C38.0281,22.7656 38.6375,22.9219 39.1063,23.1719 C39.5906,23.4531 39.7625,23.6719 39.8563,24.0781 C39.9188,24.4844 39.95,24.6094 40.0906,24.7344 C40.2313,24.875 40.4656,24.9844 40.6844,24.9844 C40.95,24.9844 41.2156,24.8438 41.3875,24.625 C41.4969,24.4688 41.5281,24.2813 41.5281,23.8594 L41.5281,22.4375 C41.5281,22 41.5125,21.875 41.4188,21.7188 C41.2625,21.4531 40.9813,21.3125 40.6844,21.3125 C40.3875,21.3125 40.1844,21.4063 39.9656,21.7188 L39.7938,21.6406 Z " fill="#000000"/><text fill="#000000" font-family="sans-serif" font-size="12" lengthAdjust="spacing" textLength="109" x="51.55" y="23.1387">PASSENGER SPACE</text><text fill="#000000" font-family="sans-serif" font-size="12" lengthAdjust="spacing" textLength="106" x="53.05" y="37.1074">ENTRANCE COUNT</text><line style="stroke:#A80036;stroke-width:1.5;" x1="23" x2="163" y1="44.9375" y2="44.9375"/><text fill="#000000" font-family="sans-serif" font-size="11" lengthAdjust="spacing" textLength="101" x="28" y="59.1479">SpaceId : spaceId</text><text fill="#000000" font-family="sans-serif" font-size="11" lengthAdjust="spacing" textLength="127" x="28" y="71.9526">ObjectCount : entered</text><text fill="#000000" font-family="sans-serif" font-size="11" lengthAdjust="spacing" textLength="118" x="28" y="84.7573">ObjectCount : exited</text><text fill="#000000" font-family="sans-serif" font-size="11" lengthAdjust="spacing" textLength="121" x="28" y="97.562">CountTrigger : trigger</text><text fill="#000000" font-family="sans-serif" font-size="11" lengthAdjust="spacing" textLength="95" x="28" y="110.3667">timestamp : now</text><text fill="#000000" font-family="sans-serif" font-size="11" lengthAdjust="spacing" textLength="130" x="28" y="123.1714">timestamp : countStart</text><line style="stroke:#A80036;stroke-width:1.5;" x1="23" x2="163" y1="129.7656" y2="129.7656"/><!--MD5=[b9c9eccd6d903b32324152c598220ac8]
class EntranceMapping--><rect codeLine="64" fill="#FFF176" filter="url(#f141yx31vn0u67)" height="86.4141" id="EntranceMapping" style="stroke:#A80036;stroke-width:2.0;" width="223" x="444.5" y="217.5"/><ellipse cx="500.25" cy="233.5" fill="#ADD1B2" rx="11" ry="11" style="stroke:#A80036;stroke-width:1.0;"/><path d="M502.5938,229.1719 C501.6563,228.7344 501.0625,228.5938 500.1875,228.5938 C497.5625,228.5938 495.5625,230.6719 495.5625,233.3906 L495.5625,234.5156 C495.5625,237.0938 497.6719,238.9844 500.5625,238.9844 C501.7813,238.9844 502.9375,238.6875 503.6875,238.1406 C504.2656,237.7344 504.5938,237.2813 504.5938,236.8906 C504.5938,236.4375 504.2031,236.0469 503.7344,236.0469 C503.5156,236.0469 503.3125,236.125 503.125,236.3125 C502.6719,236.7969 502.6719,236.7969 502.4844,236.8906 C502.0625,237.1563 501.375,237.2813 500.6094,237.2813 C498.5625,237.2813 497.2656,236.1875 497.2656,234.4844 L497.2656,233.3906 C497.2656,231.6094 498.5156,230.2969 500.25,230.2969 C500.8281,230.2969 501.4375,230.4531 501.9063,230.7031 C502.3906,230.9844 502.5625,231.2031 502.6563,231.6094 C502.7188,232.0156 502.75,232.1406 502.8906,232.2656 C503.0313,232.4063 503.2656,232.5156 503.4844,232.5156 C503.75,232.5156 504.0156,232.375 504.1875,232.1563 C504.2969,232 504.3281,231.8125 504.3281,231.3906 L504.3281,229.9688 C504.3281,229.5313 504.3125,229.4063 504.2188,229.25 C504.0625,228.9844 503.7813,228.8438 503.4844,228.8438 C503.1875,228.8438 502.9844,228.9375 502.7656,229.25 L502.5938,229.1719 Z " fill="#000000"/><text fill="#000000" font-family="sans-serif" font-size="12" lengthAdjust="spacing" textLength="103" x="520.75" y="237.6543">EntranceMapping</text><line style="stroke:#A80036;stroke-width:2.0;" x1="445.5" x2="666.5" y1="249.5" y2="249.5"/><text fill="#000000" font-family="sans-serif" font-size="11" lengthAdjust="spacing" textLength="139" x="450.5" y="263.7104">EntranceId : entranceId1</text><text fill="#000000" font-family="sans-serif" font-size="11" lengthAdjust="spacing" textLength="139" x="450.5" y="276.5151">EntranceId : entranceId2</text><text fill="#000000" font-family="sans-serif" font-size="11" lengthAdjust="spacing" textLength="211" x="450.5" y="289.3198">Enum Direction : ALIGNED|REVERSED</text><line style="stroke:#A80036;stroke-width:2.0;" x1="445.5" x2="666.5" y1="295.9141" y2="295.9141"/><path d="M454,409 L454,449.2656 A0,0 0 0 0 454,449.2656 L672,449.2656 A0,0 0 0 0 672,449.2656 L672,419 L662,409 L566.185,409 L557.766,303.515 L558.185,409 L454,409 A0,0 0 0 0 454,409 " fill="#FBFB77" filter="url(#f141yx31vn0u67)" style="stroke:#A80036;stroke-width:1.0;"/><path d="M662,409 L662,419 L672,419 L662,409 " fill="#FBFB77" style="stroke:#A80036;stroke-width:1.0;"/><text fill="#000000" font-family="sans-serif" font-size="13" lengthAdjust="spacing" textLength="193" x="460" y="426.0669">Sets two entranceIds as being</text><text fill="#000000" font-family="sans-serif" font-size="13" lengthAdjust="spacing" textLength="182" x="460" y="441.1997">the same physical entrance.</text><path d="M438,52.5 L438,92.7656 A0,0 0 0 0 438,92.7656 L552,92.7656 L556,217.408 L560,92.7656 L674,92.7656 A0,0 0 0 0 674,92.7656 L674,62.5 L664,52.5 L438,52.5 A0,0 0 0 0 438,52.5 " fill="#FBFB77" filter="url(#f141yx31vn0u67)" style="stroke:#A80036;stroke-width:1.0;"/><path d="M664,52.5 L664,62.5 L674,62.5 L664,52.5 " fill="#FBFB77" style="stroke:#A80036;stroke-width:1.0;"/><text fill="#000000" font-family="sans-serif" font-size="13" lengthAdjust="spacing" textLength="91" x="444" y="69.5669">This may be a</text><text fill="#000000" font-family="sans-serif" font-size="13" lengthAdjust="spacing" textLength="215" x="444" y="84.6997">COUPLED PASSENGER ENTRANCE</text><!--MD5=[ed1c608159317626d447df6f6f7d86c6]
link PS to EntranceRef--><path codeLine="37" d="M212,301.5 C175.778,301.5 202.722,339.006 234.782,373.173 " fill="none" id="PS-to-EntranceRef" style="stroke:#A80036;stroke-width:1.0;"/><polygon fill="#A80036" points="243.912,382.688,242.6442,375.5892,235.6039,374.0291,236.8717,381.1279,243.912,382.688" style="stroke:#A80036;stroke-width:1.0;"/><!--MD5=[e3a7893b75e972e584429f63e608e721]
link PEC to N--><path codeLine="51" d="M249.87,679.147 C237.627,699.823 224.8,721.485 214.529,738.831 " fill="none" id="PEC-N" style="stroke:#A80036;stroke-width:1.0;stroke-dasharray:7.0,7.0;"/><!--MD5=[bd13d026cda89025b4a336c3c5021a44]
link SensorEntranceMapping to N--><path codeLine="52" d="M117.507,644.32 C134.184,672.485 157.145,711.2595 173.549,738.9632 " fill="none" id="SensorEntranceMapping-N" style="stroke:#A80036;stroke-width:1.0;stroke-dasharray:7.0,7.0;"/><!--MD5=[0f818d4af2273e620bb21659ed0f0b6a]
link PSC to PS--><!--MD5=[902fbbedd731a9fbd7d77540effd1555]
link EntranceRef to PEC--><!--MD5=[b71987ebfe5877f014e20af6dbb6017d]
link PSEC to PSOC--><!--MD5=[7f9d00b03454253271905e4e7a6d4560]
link PS to EntranceMapping--><!--MD5=[e5e5c137276eca353c2a38cb3d8da7a4]
@startuml
skinparam backgroundColor white

class "PASSENGER\nSPACE" as PS #line.bold;back:FFF176 {
    SpaceId : id
    Enum SpaceType 
    SpaceId [] : isPartOfSpaces
    SpaceId [] : containsSpaces
    EntranceRef [] : entrances
}

class "PASSENGER\nSPACE CAPACITY" as PSC #line.bold;back:FFF176 {
    SpaceId : spaceId
    ObjectCount : countAtCapacity
}

class "PASSENGER SPACE\nOCCUPANCY COUNT" as PSOC {
    SpaceId : spaceId
    ObjectCount : occupancy
    CountTrigger : trigger
    timestamp : now 
}


class "EntranceRef \nENTRANCE FOR PASSENGER SPACE " as EntranceRef #line.bold;back:FFF176 {
    EntranceId : entranceId
    Enum EntranceType : EXTERNAL|INTERNAL
    Enum Direction : ALIGNED|REVERSED
}

class SensorEntranceMapping #line.bold;back:FFF176 {
    EntranceId : entranceId
    SensorId : sensorId
}

note "PASSENGER ENTRANCE COUNT must \ncontain _either_ a entranceId or a sensorId. \nIf it contains a sensorId a \nSensorEntranceMapping must be present. " as N

PS::EntranceRef - -* EntranceRef



class "PASSENGER\nENTRANCE COUNT" as PEC {
    EntranceId : entranceId
    SensorId : sensorId
    ObjectCount : entered
    ObjectCount : exited
    CountTrigger : trigger
    timestamp : now 
    timestamp : countStart
}

PEC .. N
SensorEntranceMapping .. N


class "PASSENGER SPACE\nENTRANCE COUNT" as PSEC {
    SpaceId : spaceId
    ObjectCount : entered
    ObjectCount : exited
    CountTrigger : trigger
    timestamp : now 
    timestamp : countStart
}

class EntranceMapping #line.bold;back:FFF176 {
EntranceId : entranceId1
EntranceId : entranceId2
Enum Direction : ALIGNED|REVERSED
}

note bottom of EntranceMapping: Sets two entranceIds as being \nthe same physical entrance. 

note top of EntranceMapping: This may be a \nCOUPLED PASSENGER ENTRANCE  

'Some hacks to improve layout
PS -[hidden]up- "1" PSC
PEC -[hidden]u- EntranceRef
PSOC -[hidden]u- PSEC
PS -[hidden]r- EntranceMapping
@enduml

@startuml
skinparam backgroundColor white

class "PASSENGER\nSPACE" as PS #line.bold;back:FFF176 {
    SpaceId : id
    Enum SpaceType 
    SpaceId [] : isPartOfSpaces
    SpaceId [] : containsSpaces
    EntranceRef [] : entrances
}

class "PASSENGER\nSPACE CAPACITY" as PSC #line.bold;back:FFF176 {
    SpaceId : spaceId
    ObjectCount : countAtCapacity
}

class "PASSENGER SPACE\nOCCUPANCY COUNT" as PSOC {
    SpaceId : spaceId
    ObjectCount : occupancy
    CountTrigger : trigger
    timestamp : now 
}


class "EntranceRef \nENTRANCE FOR PASSENGER SPACE " as EntranceRef #line.bold;back:FFF176 {
    EntranceId : entranceId
    Enum EntranceType : EXTERNAL|INTERNAL
    Enum Direction : ALIGNED|REVERSED
}

class SensorEntranceMapping #line.bold;back:FFF176 {
    EntranceId : entranceId
    SensorId : sensorId
}

note "PASSENGER ENTRANCE COUNT must \ncontain _either_ a entranceId or a sensorId. \nIf it contains a sensorId a \nSensorEntranceMapping must be present. " as N

PS::EntranceRef - -* EntranceRef



class "PASSENGER\nENTRANCE COUNT" as PEC {
    EntranceId : entranceId
    SensorId : sensorId
    ObjectCount : entered
    ObjectCount : exited
    CountTrigger : trigger
    timestamp : now 
    timestamp : countStart
}

PEC .. N
SensorEntranceMapping .. N


class "PASSENGER SPACE\nENTRANCE COUNT" as PSEC {
    SpaceId : spaceId
    ObjectCount : entered
    ObjectCount : exited
    CountTrigger : trigger
    timestamp : now 
    timestamp : countStart
}

class EntranceMapping #line.bold;back:FFF176 {
EntranceId : entranceId1
EntranceId : entranceId2
Enum Direction : ALIGNED|REVERSED
}

note bottom of EntranceMapping: Sets two entranceIds as being \nthe same physical entrance. 

note top of EntranceMapping: This may be a \nCOUPLED PASSENGER ENTRANCE  

PS -[hidden]up- "1" PSC
PEC -[hidden]u- EntranceRef
PSOC -[hidden]u- PSEC
PS -[hidden]r- EntranceMapping
@enduml

PlantUML version 1.2021.7(Sun May 23 12:40:07 UTC 2021)
(GPL source distribution)
Java Runtime: Java(TM) SE Runtime Environment
JVM: Java HotSpot(TM) 64-Bit Server VM
Default Encoding: UTF-8
Language: en
Country: US
--></g></svg>